<svg xmlns="http://www.w3.org/2000/svg" viewBox="0 0 430 910" role="img" aria-label="Copilot on iPhone: a workspace list mirrored from Pilot with an on-screen trackpad at the bottom.">
  <defs>
    <style>
      .scr{fill:#0B0B0F}.row{fill:#ffffff;fill-opacity:.025}
      .hair{stroke:#ffffff;stroke-opacity:.07;stroke-width:1}
      .t{font-family:ui-sans-serif,system-ui,-apple-system,sans-serif}
      .tm{font-family:ui-monospace,'SF Mono',monospace}
      .pri{fill:#EDEDF2}.sec{fill:#8a8a95}.dim{fill:#5a5a64}
      .amber{fill:#FF9A4D}.green{fill:#3DDC84}
    </style>
  </defs>

  <rect class="scr" width="430" height="910"/>

  <!-- status bar -->
  <text class="tm pri" x="34" y="38" font-size="17" font-weight="600">6:33</text>
  <g fill="#EDEDF2">
    <rect x="338" y="26" width="3" height="8" rx="1"/><rect x="344" y="23" width="3" height="11" rx="1"/><rect x="350" y="20" width="3" height="14" rx="1"/><rect x="356" y="17" width="3" height="17" rx="1"/>
    <path d="M372 22 a8 8 0 0 1 11 0 l-5.5 6 z"/>
    <rect x="390" y="20" width="22" height="12" rx="3" fill="none" stroke="#EDEDF2" stroke-width="1.4"/><rect x="392" y="22" width="16" height="8" rx="1.5"/>
  </g>

  <!-- title -->
  <text class="t pri" x="30" y="100" font-size="28" font-weight="700">Copilot</text>
  <rect x="330" y="78" width="34" height="24" rx="6" fill="none" class="hair" stroke-opacity="0.25"/>
  <rect x="336" y="84" width="22" height="12" rx="1.5" fill="#6a6a74"/>
  <circle cx="392" cy="90" r="13" fill="#16161c"/><path d="M386 84 a8 8 0 1 1 0 12" fill="none" stroke="#8a8a95" stroke-width="1.6"/>
  <circle cx="392" cy="90" r="4" class="green"/>

  <!-- Pinned -->
  <text class="t dim" x="30" y="146" font-size="12" letter-spacing="0.5">Pinned</text>
  <rect class="row" x="20" y="158" width="390" height="44" rx="10"/>
  <text class="t pri" x="34" y="186" font-size="15">Excalidraw</text>
  <rect class="row" x="20" y="206" width="390" height="44" rx="10"/>
  <text class="t pri" x="34" y="234" font-size="15">joeblau.com</text>

  <!-- Workspaces -->
  <text class="t dim" x="30" y="290" font-size="12" letter-spacing="0.5">Workspaces</text>

  <!-- highlighted: blau -->
  <rect x="20" y="302" width="390" height="46" rx="10" fill="#FF7A1A" fill-opacity="0.12"/>
  <rect x="20" y="302" width="3" height="46" rx="1.5" fill="#FF7A1A"/>
  <text class="t amber" x="36" y="331" font-size="16" font-weight="600">blau</text>

  <rect class="row" x="20" y="356" width="390" height="44" rx="10"/>
  <text class="t pri" x="34" y="383" font-size="15">web</text>
  <circle cx="80" cy="378" r="10" fill="#E5675F" fill-opacity="0.9"/><text class="t" x="80" y="382" font-size="11" font-weight="700" fill="#1a0606" text-anchor="middle">2</text>

  <rect class="row" x="20" y="404" width="390" height="44" rx="10"/>
  <text class="t pri" x="34" y="431" font-size="15">infra</text>

  <rect class="row" x="20" y="452" width="390" height="44" rx="10"/>
  <text class="t pri" x="34" y="479" font-size="15">api</text>
  <circle cx="74" cy="474" r="10" fill="#E5675F" fill-opacity="0.9"/><text class="t" x="74" y="478" font-size="11" font-weight="700" fill="#1a0606" text-anchor="middle">5</text>

  <rect class="row" x="20" y="500" width="390" height="44" rx="10"/>
  <text class="t pri" x="34" y="527" font-size="15">submap.ai</text>

  <!-- trackpad -->
  <rect x="20" y="612" width="390" height="262" rx="22" fill="#101015" stroke="#ffffff" stroke-opacity="0.06"/>
  <rect x="20" y="612" width="390" height="262" rx="22" fill="none" stroke="#ffffff" stroke-opacity="0.04" stroke-dasharray="2 5"/>
  <text class="t dim" x="215" y="748" font-size="14" text-anchor="middle">Trackpad</text>
</svg>
