<svg xmlns="http://www.w3.org/2000/svg" viewBox="0 0 360 460" role="img" aria-label="Wingman on Apple Watch: a double-pinch gesture that sends Enter to the Mac.">
  <defs>
    <linearGradient id="wg-band" x1="0" y1="0" x2="0" y2="1">
      <stop offset="0" stop-color="#b7ad95"/><stop offset="1" stop-color="#8f876f"/>
    </linearGradient>
    <linearGradient id="wg-case" x1="0" y1="0" x2="1" y2="1">
      <stop offset="0" stop-color="#23232a"/><stop offset="1" stop-color="#101015"/>
    </linearGradient>
    <style>
      .t{font-family:ui-sans-serif,system-ui,sans-serif}
      .amber{fill:#FF9A4D}.green{fill:#3DDC84}.sec{fill:#8a8a95}.dim{fill:#5a5a64}
    </style>
  </defs>

  <!-- bands -->
  <path d="M118 70 q62 -26 124 0 l-8 70 q-54 -18 -108 0 z" fill="url(#wg-band)" opacity="0.92"/>
  <path d="M110 392 q70 26 140 0 l-10 -70 q-60 18 -120 0 z" fill="url(#wg-band)" opacity="0.92"/>

  <!-- case -->
  <rect x="78" y="92" width="204" height="276" rx="58" fill="url(#wg-case)" stroke="#000" stroke-opacity="0.5"/>
  <rect x="78" y="92" width="204" height="276" rx="58" fill="none" stroke="#ffffff" stroke-opacity="0.08"/>
  <!-- digital crown + button -->
  <rect x="280" y="168" width="11" height="40" rx="5" fill="#2a2a31"/>
  <rect x="281" y="222" width="9" height="30" rx="4" fill="#2a2a31"/>

  <!-- screen -->
  <rect x="96" y="108" width="168" height="244" rx="46" fill="#070709"/>

  <!-- title + time -->
  <text class="t sec" x="180" y="146" font-size="13" text-anchor="middle">Wingman</text>
  <text class="t amber" x="180" y="166" font-size="11" text-anchor="middle" font-family="ui-monospace,monospace">10:09</text>

  <!-- pinch gesture glyph -->
  <circle cx="180" cy="232" r="46" fill="none" stroke="#FF7A1A" stroke-opacity="0.2" stroke-width="2"/>
  <circle cx="180" cy="232" r="34" fill="#FF7A1A" fill-opacity="0.08" stroke="#FF7A1A" stroke-opacity="0.45" stroke-width="2"/>
  <!-- two fingertips pinching -->
  <circle cx="166" cy="232" r="9" class="amber"/>
  <circle cx="194" cy="232" r="9" class="amber"/>
  <path d="M150 232 h6 M204 232 h6" stroke="#FF9A4D" stroke-width="2" stroke-linecap="round"/>

  <!-- label -->
  <text class="t dim" x="180" y="306" font-size="11" text-anchor="middle">Double-pinch</text>
  <circle cx="156" cy="326" r="3.5" class="green"/>
  <text class="t sec" x="168" y="330" font-size="11">Linked</text>
</svg>
